<svg xmlns="http://www.w3.org/2000/svg" viewBox="0 0 1440 320"><path fill="#fff" fill-opacity="1" d="M0,288L30,282.7C60,277,120,267,180,266.7C240,267,300,277,360,250.7C420,224,480,160,540,138.7C600,117,660,139,720,176C780,213,840,267,900,277.3C960,288,1020,256,1080,224C1140,192,1200,160,1260,133.3C1320,107,1380,85,1410,74.7L1440,64L1440,320L1410,320C1380,320,1320,320,1260,320C1200,320,1140,320,1080,320C1020,320,960,320,900,320C840,320,780,320,720,320C660,320,600,320,540,320C480,320,420,320,360,320C300,320,240,320,180,320C120,320,60,320,30,320L0,320Z"></path></svg>