<svg xmlns="http://www.w3.org/2000/svg" viewBox="0 0 1440 320" preserveAspectRatio= "none"><path fill="#fff" fill-opacity="1" d="M0,32L15,26.7C30,21,60,11,90,48C120,85,150,171,180,224C210,277,240,299,270,282.7C300,267,330,213,360,208C390,203,420,245,450,240C480,235,510,181,540,144C570,107,600,85,630,101.3C660,117,690,171,720,170.7C750,171,780,117,810,90.7C840,64,870,64,900,96C930,128,960,192,990,181.3C1020,171,1050,85,1080,80C1110,75,1140,149,1170,197.3C1200,245,1230,267,1260,277.3C1290,288,1320,288,1350,245.3C1380,203,1410,117,1425,74.7L1440,32L1440,320L1425,320C1410,320,1380,320,1350,320C1320,320,1290,320,1260,320C1230,320,1200,320,1170,320C1140,320,1110,320,1080,320C1050,320,1020,320,990,320C960,320,930,320,900,320C870,320,840,320,810,320C780,320,750,320,720,320C690,320,660,320,630,320C600,320,570,320,540,320C510,320,480,320,450,320C420,320,390,320,360,320C330,320,300,320,270,320C240,320,210,320,180,320C150,320,120,320,90,320C60,320,30,320,15,320L0,320Z"></path></svg>